<?xml version="1.0" encoding="utf-8"?>
<!-- Generator: Adobe Illustrator 16.0.0, SVG Export Plug-In . SVG Version: 6.00 Build 0)  -->
<!DOCTYPE svg PUBLIC "-//W3C//DTD SVG 1.1//EN" "http://www.w3.org/Graphics/SVG/1.1/DTD/svg11.dtd">
<svg version="1.1" id="Capa_1" xmlns="http://www.w3.org/2000/svg" xmlns:xlink="http://www.w3.org/1999/xlink" x="0px" y="0px"
	 width="201.065px" height="37.128px" viewBox="0 0 201.065 37.128" enable-background="new 0 0 201.065 37.128"
	 xml:space="preserve">
<g>
	<g>
		<path fill="#87868A" stroke="#727176" stroke-width="0.5" stroke-miterlimit="10" d="M36.237,18.245
			c-0.441-0.086-0.89,0.004-1.264,0.255c-0.309,0.208-0.536,0.505-0.654,0.852L32.4,18.514c0.004-0.131,0.006-0.261,0.006-0.387
			c0-1.129-0.142-2.249-0.42-3.335l0.86-0.584c0.546,0.478,1.34,0.621,2.033,0.319c0.936-0.406,1.383-1.487,1.02-2.461l-0.406-1.088
			c-0.367-0.986-1.424-1.506-2.406-1.183c-0.496,0.163-0.896,0.511-1.125,0.979c-0.131,0.267-0.195,0.553-0.195,0.84l-0.978,0.136
			c-0.134-0.245-0.28-0.494-0.437-0.742c-0.16-0.256-0.5-0.333-0.756-0.171c-0.256,0.162-0.333,0.5-0.172,0.756
			c0.186,0.292,0.354,0.585,0.502,0.871c0.15,0.286,0.465,0.448,0.783,0.404l1.762-0.246c0.163-0.023,0.309-0.118,0.393-0.259
			c0.086-0.142,0.104-0.313,0.047-0.469c-0.075-0.211-0.063-0.438,0.035-0.639c0.099-0.201,0.27-0.35,0.483-0.419
			c0.413-0.136,0.878,0.1,1.036,0.525l0.406,1.087c0.156,0.421-0.035,0.902-0.429,1.073c-0.376,0.164-0.819,0.023-1.031-0.326
			c-0.077-0.128-0.205-0.219-0.352-0.251c-0.147-0.032-0.3-0.002-0.425,0.082l-1.461,0.991c-0.271,0.184-0.395,0.52-0.307,0.836
			c0.293,1.062,0.441,2.163,0.441,3.273c0,0.182-0.004,0.372-0.014,0.564c-0.014,0.315,0.17,0.611,0.457,0.736l2.739,1.196
			c0.152,0.066,0.327,0.061,0.474-0.017c0.147-0.077,0.252-0.217,0.283-0.38l0.088-0.442c0.029-0.154,0.118-0.288,0.249-0.375
			c0.13-0.087,0.286-0.119,0.44-0.089c0.318,0.063,0.527,0.372,0.465,0.69l-0.449,2.289c-0.031,0.159-0.125,0.295-0.262,0.382
			s-0.299,0.114-0.457,0.075c-0.301-0.073-0.492-0.395-0.43-0.715l0.012-0.061c0.033-0.166-0.013-0.336-0.123-0.464
			c-0.109-0.127-0.273-0.198-0.439-0.189l-2.963,0.135c-0.313,0.015-0.591,0.225-0.69,0.524c-0.274,0.829-0.638,1.63-1.083,2.38
			c-0.165,0.279-0.137,0.634,0.072,0.881l1.311,1.557c0.098,0.116,0.238,0.186,0.389,0.194c0.152,0.008,0.299-0.046,0.409-0.15
			c0.294-0.279,0.74-0.303,1.062-0.057c0.174,0.133,0.286,0.326,0.314,0.543c0.029,0.217-0.028,0.433-0.161,0.607l-0.38,0.496
			c-0.273,0.356-0.782,0.448-1.136,0.205c-0.301-0.207-0.429-0.593-0.313-0.938c0.092-0.269-0.038-0.563-0.299-0.677l-1.887-0.83
			c-0.301-0.132-0.651-0.058-0.873,0.186c-0.842,0.924-1.814,1.712-2.89,2.34c-0.272,0.159-0.42,0.474-0.37,0.783l0.484,2.948
			c0.027,0.164,0.127,0.307,0.271,0.389c0.145,0.082,0.318,0.093,0.473,0.031l0.418-0.167c0.151-0.061,0.315-0.057,0.463,0.011
			c0.148,0.067,0.26,0.189,0.313,0.344c0.102,0.292-0.064,0.627-0.367,0.749l-2.137,0.854c-0.15,0.061-0.314,0.056-0.463-0.011
			c-0.147-0.067-0.258-0.189-0.312-0.344c-0.101-0.292,0.063-0.627,0.367-0.75l0.058-0.023c0.156-0.063,0.275-0.193,0.322-0.354
			c0.048-0.162,0.019-0.336-0.08-0.473l-1.723-2.415c-0.182-0.255-0.51-0.374-0.814-0.295c-1.004,0.261-2.043,0.393-3.086,0.393
			c-0.826,0-1.655-0.083-2.463-0.248c-0.308-0.063-0.629,0.073-0.797,0.337l-1.725,2.705c-0.09,0.14-0.111,0.313-0.058,0.471
			c0.054,0.158,0.175,0.282,0.331,0.339l0.062,0.022c0.21,0.077,0.376,0.229,0.471,0.432c0.095,0.202,0.104,0.428,0.027,0.638
			c-0.022,0.06-0.033,0.124-0.033,0.188c0,0.207-0.062,0.364-0.173,0.442c-0.11,0.078-0.279,0.082-0.474,0.01l-2.118-0.772
			c-0.426-0.155-0.65-0.628-0.504-1.055c0.069-0.204,0.221-0.369,0.424-0.466c0.215-0.103,0.465-0.115,0.686-0.035l0.049,0.018
			c0.157,0.058,0.333,0.039,0.477-0.049c0.143-0.089,0.236-0.238,0.256-0.405l0.351-3.17c0.034-0.312-0.13-0.618-0.409-0.763
			c-1.282-0.662-2.429-1.537-3.408-2.602c-0.216-0.235-0.559-0.311-0.852-0.191l-2.586,1.061c-0.145,0.059-0.256,0.176-0.309,0.321
			C6.215,27.77,6.226,27.931,6.3,28.068c0.164,0.307,0.068,0.683-0.224,0.875c-0.301,0.198-0.722,0.105-0.938-0.206l-0.662-0.953
			c-0.212-0.306-0.161-0.716,0.115-0.935c0.144-0.113,0.321-0.162,0.5-0.139c0.181,0.023,0.34,0.116,0.449,0.26
			c0.1,0.131,0.253,0.211,0.417,0.218c0.163,0.006,0.322-0.062,0.431-0.185l1.822-2.059c0.213-0.241,0.252-0.594,0.095-0.877
			c-0.196-0.354-0.378-0.725-0.541-1.105c-0.12-0.278-0.441-0.407-0.72-0.287c-0.279,0.119-0.407,0.441-0.287,0.72
			c0.146,0.341,0.307,0.675,0.477,0.998L5.93,25.867c-0.21-0.129-0.446-0.213-0.698-0.245c-0.475-0.061-0.942,0.068-1.318,0.365
			c-0.732,0.577-0.88,1.64-0.338,2.421l0.662,0.953c0.553,0.795,1.648,1.018,2.441,0.497c0.593-0.39,0.879-1.07,0.779-1.733
			l1.906-0.782c0.979,1.028,2.104,1.887,3.352,2.558l-0.262,2.355c-0.313-0.009-0.627,0.056-0.914,0.193
			c-0.471,0.225-0.822,0.615-0.988,1.099c-0.34,0.988,0.184,2.083,1.165,2.441l2.118,0.773c0.213,0.077,0.427,0.116,0.633,0.116
			c0.31,0,0.602-0.087,0.846-0.258c0.385-0.268,0.613-0.718,0.639-1.244c0.142-0.458,0.109-0.946-0.096-1.385
			c-0.13-0.281-0.322-0.521-0.559-0.707l1.287-2.019c1.848,0.344,3.775,0.293,5.598-0.146l1.25,1.752
			c-0.492,0.446-0.696,1.147-0.471,1.799c0.152,0.44,0.469,0.789,0.893,0.982c0.417,0.19,0.9,0.202,1.326,0.032l2.135-0.855
			c0.854-0.341,1.291-1.275,0.997-2.126c-0.152-0.44-0.47-0.789-0.892-0.982c-0.348-0.158-0.74-0.193-1.107-0.102l-0.34-2.066
			c1.027-0.624,1.963-1.381,2.789-2.257l1.275,0.56c-0.035,0.655,0.268,1.304,0.826,1.688c0.841,0.58,1.996,0.386,2.629-0.441
			l0.38-0.497c0.312-0.406,0.445-0.91,0.378-1.417c-0.068-0.507-0.329-0.958-0.736-1.27c-0.593-0.454-1.367-0.515-2.005-0.201
			l-0.841-0.999c0.393-0.692,0.725-1.421,0.988-2.173l2.15-0.098c0.105,0.656,0.584,1.208,1.254,1.373
			c0.453,0.111,0.918,0.034,1.309-0.216c0.387-0.247,0.659-0.646,0.748-1.096l0.449-2.289
			C37.745,19.311,37.149,18.424,36.237,18.245L36.237,18.245z"/>
		<path fill="#87868A" stroke="#727176" stroke-width="0.5" stroke-miterlimit="10" d="M3.782,19.726l2.055,0.475
			c0.045,0.286,0.101,0.576,0.166,0.865c0.057,0.255,0.283,0.428,0.533,0.428c0.04,0,0.08-0.004,0.121-0.013
			c0.295-0.066,0.48-0.36,0.414-0.655c-0.074-0.336-0.137-0.673-0.182-1.001c-0.043-0.313-0.278-0.57-0.584-0.64l-2.91-0.672
			c-0.162-0.038-0.332,0.001-0.463,0.104c-0.131,0.103-0.207,0.259-0.209,0.426l-0.003,0.341c-0.003,0.381-0.316,0.691-0.698,0.691
			c-0.182,0-0.352-0.071-0.479-0.2c-0.128-0.128-0.198-0.3-0.196-0.481l0.02-2.114c0.002-0.194,0.084-0.384,0.226-0.521
			c0.134-0.129,0.302-0.198,0.479-0.193c0.371,0.01,0.67,0.32,0.668,0.691c0,0.167,0.076,0.327,0.207,0.431
			c0.131,0.105,0.303,0.144,0.467,0.105l2.89-0.677c0.306-0.072,0.54-0.33,0.582-0.642c0.214-1.582,0.726-3.084,1.524-4.468
			c0.162-0.279,0.129-0.631-0.079-0.877L6.952,9.508C6.845,9.381,6.687,9.311,6.519,9.315C6.353,9.32,6.198,9.4,6.098,9.533
			L5.978,9.69C5.889,9.809,5.759,9.882,5.612,9.899S5.321,9.873,5.206,9.778c-0.215-0.18-0.244-0.52-0.064-0.758L6.06,7.806
			c0.179-0.235,0.516-0.282,0.75-0.104c0.221,0.167,0.277,0.48,0.129,0.713C6.853,8.551,6.831,8.717,6.878,8.871
			c0.047,0.154,0.159,0.279,0.306,0.342l1.927,0.833c0.299,0.129,0.648,0.054,0.868-0.187c0.878-0.961,1.895-1.772,3.022-2.412
			c0.273-0.155,0.426-0.468,0.38-0.778l-0.444-2.954c-0.024-0.165-0.123-0.309-0.266-0.393c-0.145-0.083-0.318-0.098-0.473-0.038
			l-0.421,0.162C11.626,3.505,11.462,3.5,11.314,3.43c-0.147-0.069-0.256-0.193-0.308-0.348c-0.097-0.293,0.072-0.627,0.378-0.744
			l2.147-0.826c0.151-0.058,0.315-0.052,0.463,0.017c0.146,0.07,0.256,0.193,0.307,0.348c0.098,0.293-0.072,0.627-0.377,0.744
			l-0.059,0.022c-0.156,0.061-0.277,0.19-0.327,0.351s-0.022,0.335,0.073,0.474l1.691,2.437c0.178,0.258,0.504,0.381,0.809,0.306
			c0.953-0.233,1.938-0.352,2.931-0.352l0,0c0.323,0,0.614-0.204,0.722-0.507l0.56-1.566c0.05-0.14,0.041-0.295-0.026-0.429
			c-0.066-0.133-0.184-0.234-0.326-0.279c-0.407-0.127-0.667-0.528-0.617-0.952c0.027-0.226,0.146-0.431,0.334-0.578
			c0.198-0.155,0.451-0.226,0.695-0.195l0.768,0.097c0.499,0.063,0.861,0.503,0.809,0.982c-0.039,0.37-0.299,0.669-0.658,0.764
			c-0.264,0.069-0.438,0.322-0.406,0.593l0.194,1.697c0.037,0.324,0.276,0.588,0.597,0.659C22.91,6.414,24.083,6.87,25.173,7.5
			c0.273,0.158,0.62,0.131,0.864-0.067l2.319-1.882c0.129-0.105,0.203-0.263,0.202-0.429s-0.077-0.323-0.208-0.426l-0.352-0.281
			c-0.127-0.101-0.205-0.245-0.221-0.407c-0.014-0.162,0.037-0.318,0.145-0.441c0.203-0.232,0.576-0.256,0.832-0.052l1.803,1.43
			c0.127,0.101,0.205,0.246,0.219,0.408c0.016,0.162-0.035,0.318-0.143,0.441c-0.203,0.232-0.577,0.256-0.833,0.053l-0.049-0.039
			c-0.132-0.104-0.305-0.143-0.468-0.104c-0.164,0.039-0.301,0.151-0.371,0.304l-1.242,2.697c-0.131,0.285-0.072,0.628,0.148,0.853
			c0.077,0.08,0.154,0.162,0.246,0.262c0.205,0.223,0.552,0.237,0.774,0.032s0.237-0.552,0.032-0.774
			c-0.039-0.042-0.075-0.082-0.111-0.12l0.902-1.958c0.632,0.207,1.342,0.036,1.796-0.484c0.307-0.351,0.452-0.799,0.41-1.262
			c-0.042-0.457-0.271-0.882-0.63-1.167l-1.803-1.43c-0.72-0.572-1.747-0.489-2.34,0.19c-0.307,0.351-0.452,0.799-0.41,1.262
			c0.035,0.38,0.199,0.738,0.461,1.012l-1.624,1.319c-1.062-0.589-2.193-1.03-3.37-1.311l-0.121-1.051
			c0.558-0.308,0.948-0.876,1.02-1.524c0.115-1.07-0.675-2.052-1.763-2.189l-0.769-0.097c-0.531-0.067-1.08,0.086-1.507,0.419
			c-0.42,0.329-0.685,0.795-0.747,1.313c-0.089,0.753,0.258,1.472,0.861,1.879l-0.317,0.888c-0.924,0.016-1.842,0.126-2.735,0.329
			l-1.227-1.769c0.498-0.438,0.711-1.137,0.494-1.792c-0.146-0.442-0.459-0.795-0.879-0.994c-0.414-0.196-0.897-0.214-1.325-0.05
			l-2.147,0.826c-0.857,0.33-1.309,1.257-1.024,2.112c0.146,0.442,0.458,0.795,0.879,0.994c0.345,0.163,0.737,0.203,1.106,0.117
			l0.311,2.07c-1.082,0.639-2.066,1.424-2.933,2.339L8.093,8.412C8.193,7.825,7.97,7.204,7.472,6.828
			C7.124,6.565,6.694,6.453,6.263,6.513S5.448,6.797,5.186,7.145L4.268,8.358c-0.537,0.71-0.433,1.704,0.237,2.262
			c0.348,0.289,0.785,0.42,1.232,0.368c0.281-0.032,0.55-0.139,0.776-0.305l0.831,0.976c-0.768,1.384-1.276,2.875-1.514,4.438
			L3.71,16.596c-0.258-0.643-0.881-1.108-1.609-1.127c-0.475-0.012-0.924,0.165-1.271,0.5c-0.352,0.339-0.556,0.813-0.561,1.299
			l-0.019,2.114c-0.005,0.476,0.178,0.925,0.513,1.263c0.335,0.338,0.782,0.525,1.259,0.525C2.889,21.169,3.618,20.547,3.782,19.726
			L3.782,19.726z"/>
		<path fill="#87868A" stroke="#727176" stroke-width="0.5" stroke-miterlimit="10" d="M16.327,16.733
			c0.268-0.142,0.37-0.473,0.229-0.741c-0.142-0.267-0.474-0.37-0.741-0.228c-1.311,0.695-2.804,0.511-3.55-0.437
			c-0.42-0.532-0.563-1.236-0.406-1.983c0.164-0.784,0.637-1.515,1.328-2.06s1.513-0.833,2.313-0.81
			c0.764,0.021,1.415,0.326,1.834,0.857c0.629,0.798,0.621,1.99-0.02,3.036c-0.159,0.258-0.078,0.596,0.18,0.754
			s0.596,0.078,0.754-0.181c0.885-1.441,0.864-3.125-0.053-4.288c-0.623-0.791-1.57-1.244-2.664-1.275
			c-1.057-0.03-2.13,0.341-3.023,1.045c-0.893,0.704-1.504,1.661-1.721,2.696c-0.227,1.07-0.006,2.096,0.617,2.888
			c0.656,0.833,1.686,1.271,2.791,1.271C14.899,17.278,15.636,17.1,16.327,16.733z"/>
		<path fill="#87868A" stroke="#727176" stroke-width="0.5" stroke-miterlimit="10" d="M26.964,11.817
			c0-1.137-1.057-2.061-2.357-2.061c-1.299,0-2.357,0.924-2.357,2.061c0,1.136,1.059,2.061,2.357,2.061
			C25.907,13.878,26.964,12.954,26.964,11.817z M23.346,11.817c0-0.532,0.565-0.965,1.261-0.965c0.696,0,1.262,0.433,1.262,0.965
			c0,0.532-0.565,0.965-1.262,0.965C23.911,12.782,23.346,12.349,23.346,11.817z"/>
		<path fill="#87868A" stroke="#727176" stroke-width="0.5" stroke-miterlimit="10" d="M20.603,21.239
			c0-1.393-1.133-2.526-2.525-2.526s-2.525,1.133-2.525,2.526c0,1.393,1.133,2.526,2.525,2.526S20.603,22.632,20.603,21.239z
			 M16.647,21.239c0-0.789,0.641-1.43,1.43-1.43s1.43,0.641,1.43,1.43c0,0.788-0.641,1.43-1.43,1.43S16.647,22.027,16.647,21.239z"
			/>
	</g>
	<g>
		<path fill="#78B0DF" d="M44.923,8.781c-0.615-0.556-0.922-1.247-0.922-2.071s0.307-1.515,0.922-2.072
			c0.613-0.556,1.418-0.834,2.416-0.834c0.997,0,1.803,0.264,2.417,0.792c0.614,0.528,0.921,1.204,0.921,2.028
			c0,0.863-0.307,1.578-0.921,2.144c-0.614,0.566-1.42,0.849-2.417,0.849C46.341,9.616,45.536,9.338,44.923,8.781z M44.605,11.342
			h5.467v15.594h-5.467V11.342z"/>
		<path fill="#78B0DF" d="M68.442,12.81c1.18,1.151,1.77,2.887,1.77,5.208v8.919h-5.467v-8.027c0-2.129-0.854-3.194-2.561-3.194
			c-0.939,0-1.692,0.307-2.258,0.921c-0.566,0.614-0.85,1.535-0.85,2.762v7.538H53.61V11.342h5.209v1.697
			c0.613-0.633,1.342-1.117,2.186-1.453s1.766-0.504,2.763-0.504C65.704,11.083,67.263,11.659,68.442,12.81z"/>
		<path fill="#78B0DF" d="M79.592,11.917h3.712v4.086h-3.568v10.933h-5.467V16.003h-2.272v-4.086h2.272v-0.403
			c0-1.899,0.57-3.404,1.713-4.517c1.141-1.112,2.737-1.669,4.79-1.669c0.69,0,1.362,0.068,2.015,0.202
			c0.651,0.134,1.188,0.336,1.61,0.604L83.044,9.99c-0.537-0.307-1.084-0.46-1.64-0.46c-0.575,0-1.021,0.173-1.338,0.518
			s-0.475,0.854-0.475,1.525V11.917z"/>
		<path fill="#78B0DF" d="M88.454,26.16c-1.344-0.69-2.394-1.649-3.15-2.877c-0.759-1.228-1.137-2.619-1.137-4.172
			c0-1.534,0.378-2.915,1.137-4.143c0.757-1.227,1.803-2.182,3.135-2.863c1.334-0.681,2.844-1.021,4.532-1.021
			c1.688,0,3.203,0.341,4.546,1.021c1.342,0.681,2.389,1.631,3.137,2.849c0.748,1.218,1.121,2.604,1.121,4.157
			s-0.373,2.945-1.121,4.172s-1.795,2.187-3.137,2.877c-1.343,0.69-2.858,1.036-4.546,1.036
			C91.302,27.195,89.796,26.85,88.454,26.16z M95.33,21.858c0.614-0.662,0.921-1.578,0.921-2.748c0-1.151-0.307-2.052-0.921-2.705
			c-0.614-0.652-1.4-0.978-2.359-0.978c-0.96,0-1.745,0.326-2.359,0.978c-0.614,0.652-0.921,1.554-0.921,2.705
			c0,1.17,0.307,2.086,0.921,2.748c0.614,0.662,1.399,0.993,2.359,0.993C93.93,22.851,94.716,22.52,95.33,21.858z"/>
		<path fill="#A01127" d="M109.011,25.944c-1.66-0.892-2.964-2.129-3.913-3.711c-0.95-1.583-1.425-3.371-1.425-5.366
			c0-1.995,0.475-3.783,1.425-5.366c0.949-1.583,2.253-2.82,3.913-3.712c1.658-0.892,3.524-1.338,5.596-1.338
			c1.746,0,3.323,0.307,4.733,0.921c1.409,0.614,2.594,1.496,3.554,2.647l-2.992,2.762c-1.363-1.573-3.051-2.359-5.064-2.359
			c-1.247,0-2.359,0.273-3.338,0.82c-0.979,0.547-1.74,1.31-2.287,2.288s-0.82,2.091-0.82,3.337c0,1.247,0.273,2.359,0.82,3.338
			c0.547,0.978,1.309,1.741,2.287,2.287c0.979,0.547,2.091,0.82,3.338,0.82c2.014,0,3.701-0.795,5.064-2.388l2.992,2.762
			c-0.96,1.17-2.148,2.063-3.568,2.676c-1.42,0.613-3.002,0.92-4.747,0.92C112.525,27.282,110.669,26.836,109.011,25.944z"/>
		<path fill="#A01127" d="M129.697,25.93c-1.679-0.901-2.993-2.144-3.942-3.726s-1.424-3.361-1.424-5.337
			c0-1.975,0.475-3.754,1.424-5.337s2.264-2.824,3.942-3.726c1.679-0.901,3.563-1.353,5.653-1.353s3.971,0.451,5.64,1.353
			c1.669,0.902,2.982,2.144,3.941,3.726s1.438,3.362,1.438,5.337c0,1.976-0.479,3.755-1.438,5.337s-2.272,2.825-3.941,3.726
			c-1.669,0.902-3.549,1.352-5.64,1.352S131.376,26.832,129.697,25.93z M138.573,22.491c0.959-0.546,1.712-1.309,2.258-2.287
			c0.547-0.979,0.82-2.091,0.82-3.338c0-1.247-0.273-2.359-0.82-3.337c-0.546-0.978-1.299-1.741-2.258-2.288
			c-0.959-0.546-2.033-0.82-3.223-0.82s-2.264,0.273-3.223,0.82c-0.959,0.547-1.711,1.31-2.258,2.288s-0.82,2.091-0.82,3.337
			c0,1.247,0.273,2.359,0.82,3.338c0.547,0.978,1.299,1.741,2.258,2.287c0.959,0.547,2.033,0.82,3.223,0.82
			S137.614,23.038,138.573,22.491z"/>
		<path fill="#A01127" d="M168.583,6.796l-8.719,20.14h-4.604l-8.688-20.14h5.035l6.128,14.386l6.215-14.386H168.583z"/>
		<path fill="#A01127" d="M170.251,6.796h4.661v20.14h-4.661V6.796z"/>
		<path fill="#A01127" d="M179.688,6.796h9.148c2.188,0,4.119,0.417,5.798,1.251s2.982,2.009,3.913,3.524
			c0.93,1.516,1.396,3.28,1.396,5.294c0,2.014-0.466,3.779-1.396,5.294c-0.931,1.516-2.234,2.69-3.913,3.525
			s-3.61,1.251-5.798,1.251h-9.148V6.796z M188.606,23.11c2.015,0,3.621-0.561,4.82-1.683c1.198-1.122,1.798-2.642,1.798-4.561
			c0-1.917-0.6-3.438-1.798-4.56c-1.199-1.122-2.806-1.683-4.82-1.683h-4.258V23.11H188.606z"/>
	</g>
</g>
</svg>
