<?xml version="1.0" encoding="utf-8"?>
<!-- Generator: Adobe Illustrator 16.0.0, SVG Export Plug-In . SVG Version: 6.00 Build 0)  -->
<!DOCTYPE svg PUBLIC "-//W3C//DTD SVG 1.1//EN" "http://www.w3.org/Graphics/SVG/1.1/DTD/svg11.dtd">
<svg version="1.1" id="Capa_1" xmlns="http://www.w3.org/2000/svg" xmlns:xlink="http://www.w3.org/1999/xlink" x="0px" y="0px"
	 width="153.595px" height="89.531px" viewBox="0 0 153.595 89.531" enable-background="new 0 0 153.595 89.531"
	 xml:space="preserve">
<g>
	<g>
		<path fill="#78B0DF" d="M57.152,27.376c-0.613-0.556-0.92-1.247-0.92-2.071s0.307-1.515,0.92-2.072
			c0.613-0.556,1.42-0.834,2.417-0.834s1.803,0.264,2.417,0.792c0.613,0.528,0.921,1.204,0.921,2.028
			c0,0.863-0.308,1.578-0.921,2.144c-0.614,0.566-1.42,0.849-2.417,0.849S57.766,27.933,57.152,27.376z M56.836,29.937h5.467v15.594
			h-5.467V29.937z"/>
		<path fill="#78B0DF" d="M80.674,31.404c1.18,1.151,1.77,2.887,1.77,5.208v8.919h-5.467v-8.027c0-2.129-0.854-3.194-2.561-3.194
			c-0.94,0-1.693,0.307-2.26,0.921c-0.565,0.614-0.848,1.535-0.848,2.762v7.538h-5.467V29.937h5.207v1.697
			c0.614-0.633,1.343-1.117,2.188-1.453c0.844-0.335,1.764-0.504,2.762-0.504C77.936,29.678,79.494,30.253,80.674,31.404z"/>
		<path fill="#78B0DF" d="M91.822,30.512h3.711v4.086h-3.567v10.933H86.5V34.598h-2.273v-4.086H86.5v-0.403
			c0-1.899,0.57-3.404,1.711-4.517c1.142-1.112,2.738-1.669,4.791-1.669c0.69,0,1.361,0.068,2.014,0.202
			c0.652,0.134,1.189,0.336,1.611,0.604l-1.352,3.855c-0.537-0.307-1.084-0.46-1.641-0.46c-0.575,0-1.021,0.173-1.338,0.518
			s-0.475,0.854-0.475,1.525V30.512z"/>
		<path fill="#78B0DF" d="M100.684,44.754c-1.342-0.69-2.393-1.649-3.15-2.877s-1.137-2.619-1.137-4.172
			c0-1.534,0.379-2.915,1.137-4.143c0.758-1.227,1.803-2.182,3.137-2.863c1.332-0.681,2.844-1.021,4.531-1.021
			s3.203,0.341,4.546,1.021c1.343,0.681,2.388,1.631,3.136,2.849c0.748,1.218,1.123,2.604,1.123,4.157s-0.375,2.945-1.123,4.172
			s-1.793,2.187-3.136,2.877s-2.858,1.036-4.546,1.036C103.532,45.79,102.026,45.445,100.684,44.754z M107.561,40.453
			c0.613-0.662,0.92-1.578,0.92-2.748c0-1.151-0.307-2.052-0.92-2.705c-0.614-0.652-1.4-0.978-2.359-0.978s-1.746,0.326-2.359,0.978
			c-0.614,0.652-0.92,1.554-0.92,2.705c0,1.17,0.306,2.086,0.92,2.748c0.613,0.662,1.4,0.993,2.359,0.993
			S106.946,41.115,107.561,40.453z"/>
		<path fill="#A01127" d="M61.541,70.539c-1.66-0.892-2.965-2.129-3.914-3.711s-1.424-3.371-1.424-5.366
			c0-1.995,0.475-3.783,1.424-5.366s2.254-2.82,3.914-3.712c1.658-0.892,3.523-1.338,5.596-1.338c1.745,0,3.322,0.307,4.732,0.921
			c1.41,0.614,2.594,1.496,3.554,2.647l-2.992,2.762c-1.362-1.573-3.05-2.359-5.063-2.359c-1.248,0-2.359,0.273-3.338,0.82
			c-0.979,0.547-1.74,1.31-2.287,2.288s-0.82,2.091-0.82,3.337c0,1.247,0.273,2.359,0.82,3.338c0.547,0.978,1.309,1.741,2.287,2.287
			c0.979,0.547,2.09,0.82,3.338,0.82c2.014,0,3.701-0.795,5.063-2.388l2.992,2.762c-0.96,1.17-2.148,2.063-3.567,2.676
			c-1.42,0.613-3.002,0.92-4.748,0.92C65.055,71.876,63.199,71.431,61.541,70.539z"/>
		<path fill="#A01127" d="M82.227,70.524c-1.678-0.901-2.992-2.144-3.941-3.726s-1.424-3.361-1.424-5.337
			c0-1.975,0.475-3.754,1.424-5.337s2.264-2.824,3.941-3.726c1.679-0.901,3.563-1.353,5.654-1.353c2.09,0,3.971,0.451,5.639,1.353
			c1.669,0.902,2.982,2.144,3.941,3.726s1.439,3.362,1.439,5.337c0,1.976-0.48,3.755-1.439,5.337s-2.272,2.825-3.941,3.726
			c-1.668,0.902-3.549,1.352-5.639,1.352C85.789,71.876,83.905,71.426,82.227,70.524z M91.104,67.086
			c0.959-0.546,1.711-1.309,2.258-2.287c0.547-0.979,0.82-2.091,0.82-3.338c0-1.247-0.273-2.359-0.82-3.337
			s-1.299-1.741-2.258-2.288c-0.96-0.546-2.033-0.82-3.223-0.82s-2.264,0.273-3.223,0.82c-0.959,0.547-1.712,1.31-2.259,2.288
			c-0.546,0.978-0.819,2.091-0.819,3.337c0,1.247,0.273,2.359,0.819,3.338c0.547,0.978,1.3,1.741,2.259,2.287
			c0.959,0.547,2.033,0.82,3.223,0.82S90.144,67.633,91.104,67.086z"/>
		<path fill="#A01127" d="M121.112,51.391l-8.718,20.14h-4.604l-8.689-20.14h5.035l6.129,14.386l6.215-14.386H121.112z"/>
		<path fill="#A01127" d="M122.781,51.391h4.66v20.14h-4.66V51.391z"/>
		<path fill="#A01127" d="M132.218,51.391h9.149c2.187,0,4.119,0.417,5.797,1.251c1.679,0.834,2.982,2.009,3.914,3.524
			c0.93,1.516,1.395,3.28,1.395,5.294c0,2.014-0.465,3.779-1.395,5.294c-0.932,1.516-2.235,2.69-3.914,3.525
			c-1.678,0.834-3.61,1.251-5.797,1.251h-9.149V51.391z M141.137,67.705c2.014,0,3.621-0.561,4.819-1.683s1.798-2.642,1.798-4.561
			c0-1.917-0.6-3.438-1.798-4.56s-2.806-1.683-4.819-1.683h-4.258v12.487H141.137z"/>
	</g>
	<path fill="#B0B0B5" d="M8.632,47.606l5.022,1.16c0.11,0.698,0.246,1.407,0.404,2.115c0.142,0.623,0.694,1.046,1.306,1.045
		c0.098,0,0.197-0.009,0.296-0.032c0.722-0.163,1.177-0.879,1.015-1.602c-0.185-0.822-0.337-1.646-0.446-2.448
		c-0.105-0.763-0.68-1.393-1.429-1.565l-7.112-1.644c-0.396-0.091-0.813,0.002-1.133,0.254c-0.318,0.251-0.506,0.633-0.511,1.041
		l-0.007,0.833c-0.008,0.932-0.773,1.69-1.705,1.69c-0.444,0-0.86-0.174-1.174-0.489c-0.313-0.315-0.482-0.733-0.479-1.177
		l0.048-5.167c0.004-0.475,0.205-0.937,0.551-1.272c0.327-0.314,0.738-0.484,1.175-0.471c0.904,0.024,1.637,0.781,1.631,1.688
		c0,0.41,0.184,0.799,0.506,1.055c0.322,0.256,0.742,0.35,1.141,0.256l7.063-1.656c0.748-0.175,1.32-0.806,1.422-1.57
		c0.523-3.865,1.776-7.539,3.728-10.921c0.395-0.683,0.317-1.544-0.194-2.143l-3.367-3.957c-0.263-0.309-0.65-0.483-1.059-0.471
		c-0.407,0.012-0.786,0.207-1.03,0.531l-0.293,0.386c-0.217,0.288-0.535,0.469-0.895,0.51c-0.357,0.041-0.71-0.064-0.99-0.296
		c-0.527-0.44-0.599-1.271-0.156-1.854l2.242-2.967c0.437-0.576,1.258-0.69,1.834-0.254c0.54,0.408,0.678,1.174,0.313,1.743
		c-0.21,0.332-0.265,0.737-0.148,1.113c0.115,0.375,0.389,0.681,0.747,0.836l4.711,2.037c0.731,0.315,1.582,0.133,2.122-0.457
		c2.145-2.349,4.63-4.333,7.388-5.896c0.668-0.379,1.04-1.144,0.927-1.901l-1.084-7.22c-0.062-0.403-0.301-0.754-0.651-0.959
		c-0.352-0.205-0.776-0.239-1.155-0.093l-1.027,0.396c-0.372,0.143-0.773,0.128-1.132-0.042c-0.359-0.17-0.625-0.472-0.751-0.851
		c-0.236-0.717,0.177-1.533,0.922-1.819l5.25-2.019c0.37-0.143,0.771-0.128,1.13,0.042c0.359,0.17,0.628,0.472,0.753,0.851
		c0.237,0.716-0.177,1.532-0.924,1.819L33.281,5.85c-0.384,0.148-0.678,0.464-0.799,0.857s-0.056,0.82,0.181,1.157l4.132,5.956
		c0.437,0.63,1.232,0.931,1.979,0.748c2.327-0.57,4.737-0.859,7.161-0.859h0.001c0.791,0,1.5-0.499,1.766-1.239l1.366-3.829
		c0.121-0.343,0.101-0.722-0.063-1.048c-0.161-0.326-0.449-0.573-0.799-0.681c-0.996-0.311-1.63-1.29-1.508-2.326
		c0.066-0.551,0.356-1.054,0.815-1.414c0.485-0.378,1.104-0.552,1.699-0.477l1.879,0.236c1.217,0.154,2.104,1.23,1.978,2.401
		c-0.1,0.903-0.731,1.636-1.611,1.868c-0.646,0.168-1.068,0.786-0.993,1.448l0.476,4.148c0.09,0.791,0.676,1.438,1.455,1.61
		c2.993,0.657,5.862,1.771,8.525,3.312c0.666,0.386,1.514,0.319,2.112-0.165l5.668-4.602c0.315-0.256,0.497-0.641,0.495-1.047
		c-0.003-0.406-0.188-0.79-0.508-1.042l-0.86-0.686c-0.311-0.247-0.502-0.6-0.539-0.996c-0.035-0.396,0.089-0.778,0.352-1.079
		c0.496-0.568,1.41-0.626,2.036-0.128l4.405,3.497c0.311,0.248,0.501,0.6,0.537,0.996c0.035,0.395-0.088,0.778-0.352,1.079
		c-0.496,0.568-1.409,0.625-2.036,0.128l-0.118-0.094c-0.322-0.256-0.746-0.35-1.144-0.254c-0.401,0.095-0.734,0.37-0.906,0.743
		l-3.038,6.591c-0.32,0.696-0.175,1.536,0.362,2.086c0.191,0.195,0.379,0.396,0.602,0.64c0.502,0.545,1.35,0.58,1.895,0.079
		s0.579-1.349,0.079-1.894c-0.097-0.104-0.185-0.2-0.271-0.292l2.206-4.787c1.544,0.504,3.277,0.088,4.388-1.183
		c0.75-0.857,1.106-1.953,1.003-3.085c-0.103-1.116-0.663-2.155-1.54-2.852l-4.405-3.497c-1.76-1.397-4.271-1.194-5.721,0.464
		c-0.748,0.858-1.104,1.953-1,3.085c0.084,0.929,0.485,1.804,1.126,2.473l-3.972,3.225c-2.595-1.441-5.36-2.518-8.238-3.204
		l-0.295-2.57c1.362-0.753,2.316-2.141,2.491-3.726c0.285-2.616-1.649-5.016-4.308-5.351l-1.878-0.236
		c-1.299-0.164-2.644,0.209-3.685,1.024c-1.025,0.803-1.675,1.942-1.825,3.208c-0.218,1.841,0.631,3.598,2.106,4.593l-0.776,2.171
		c-2.259,0.038-4.504,0.308-6.688,0.803l-2.999-4.323c1.217-1.073,1.74-2.78,1.21-4.381c-0.359-1.081-1.122-1.944-2.149-2.43
		c-1.013-0.479-2.193-0.523-3.238-0.122l-5.25,2.019c-2.096,0.806-3.196,3.074-2.504,5.164c0.357,1.081,1.121,1.944,2.148,2.43
		c0.843,0.399,1.802,0.497,2.705,0.286l0.76,5.059c-2.646,1.561-5.054,3.48-7.169,5.717l-3.025-1.308
		c0.246-1.433-0.301-2.952-1.518-3.871c-0.851-0.643-1.898-0.917-2.955-0.77c-1.056,0.146-1.991,0.695-2.634,1.545l-2.243,2.967
		c-1.313,1.735-1.058,4.165,0.579,5.529c0.85,0.706,1.918,1.026,3.012,0.9c0.689-0.079,1.346-0.34,1.899-0.744l2.03,2.384
		c-1.875,3.383-3.119,7.029-3.699,10.85l-5.187,1.215c-0.63-1.571-2.151-2.708-3.931-2.755c-1.162-0.029-2.259,0.403-3.106,1.22
		c-0.86,0.831-1.36,1.989-1.371,3.176L0,46.763c-0.011,1.164,0.434,2.261,1.254,3.088c0.82,0.828,1.914,1.283,3.078,1.283
		C6.448,51.134,8.23,49.612,8.632,47.606L8.632,47.606z"/>
	<path fill="#B0B0B5" d="M39.299,40.291c0.653-0.346,0.902-1.157,0.557-1.812c-0.347-0.654-1.158-0.904-1.813-0.557
		c-3.202,1.698-6.852,1.249-8.677-1.068c-1.025-1.299-1.378-3.021-0.993-4.847c0.403-1.916,1.557-3.704,3.245-5.036
		c1.692-1.332,3.699-2.034,5.655-1.98c1.867,0.052,3.459,0.797,4.484,2.096c1.536,1.952,1.518,4.864-0.052,7.42
		c-0.387,0.631-0.188,1.456,0.442,1.843c0.632,0.387,1.456,0.189,1.842-0.441c2.162-3.524,2.112-7.638-0.13-10.48
		c-1.523-1.934-3.837-3.041-6.509-3.116c-2.585-0.075-5.209,0.833-7.392,2.554c-2.182,1.719-3.677,4.06-4.209,6.588
		c-0.552,2.617-0.015,5.125,1.51,7.059c1.604,2.037,4.118,3.107,6.823,3.107C35.808,41.622,37.606,41.187,39.299,40.291z"/>
	<path fill="#B0B0B5" d="M49.748,51.304c0-3.404-2.769-6.174-6.172-6.174c-3.407,0-6.177,2.77-6.177,6.174s2.77,6.174,6.177,6.174
		C46.979,57.478,49.748,54.708,49.748,51.304z M40.08,51.304c0-1.927,1.567-3.495,3.496-3.495c1.926,0,3.494,1.567,3.494,3.495
		c0,1.927-1.568,3.494-3.494,3.494C41.647,54.798,40.08,53.23,40.08,51.304z"/>
	<path fill="#B0B0B5" d="M54.516,72.767c-0.33-0.106-0.688-0.13-1.037-0.041c-2.455,0.637-4.995,0.959-7.546,0.959
		c-2.021,0-4.046-0.204-6.02-0.607c-0.753-0.153-1.536,0.178-1.949,0.825l-4.217,6.612c-0.217,0.343-0.269,0.766-0.14,1.151
		c0.132,0.385,0.431,0.69,0.813,0.829l0.148,0.054c0.512,0.187,0.919,0.562,1.148,1.056c0.231,0.493,0.256,1.047,0.068,1.56
		c-0.053,0.147-0.081,0.302-0.081,0.459c0,0.506-0.148,0.891-0.42,1.081c-0.272,0.19-0.683,0.199-1.16,0.025l-5.178-1.889
		c-1.039-0.378-1.592-1.534-1.233-2.578c0.172-0.498,0.541-0.902,1.037-1.139c0.526-0.252,1.138-0.282,1.675-0.086l0.119,0.043
		c0.387,0.142,0.815,0.097,1.165-0.12s0.58-0.583,0.626-0.991l0.858-7.75c0.085-0.763-0.318-1.512-1.001-1.864
		c-3.133-1.618-5.937-3.758-8.331-6.359c-0.527-0.574-1.363-0.761-2.081-0.466l-6.322,2.592c-0.349,0.143-0.624,0.43-0.75,0.786
		c-0.13,0.356-0.101,0.751,0.077,1.085c0.401,0.75,0.167,1.67-0.547,2.138c-0.734,0.483-1.763,0.257-2.29-0.504l-1.619-2.33
		c-0.52-0.748-0.396-1.751,0.279-2.284c0.352-0.276,0.786-0.397,1.224-0.34c0.441,0.057,0.831,0.283,1.1,0.637
		c0.242,0.321,0.614,0.516,1.016,0.531c0.401,0.015,0.789-0.15,1.055-0.451l4.453-5.032c0.522-0.59,0.617-1.452,0.231-2.144
		c-0.479-0.864-0.922-1.772-1.323-2.702c-0.291-0.679-1.077-0.995-1.76-0.702c-0.68,0.292-0.993,1.08-0.702,1.76
		c0.359,0.833,0.751,1.651,1.168,2.439l-3.187,3.604c-0.515-0.315-1.092-0.52-1.708-0.6c-1.16-0.149-2.304,0.168-3.223,0.894
		c-1.789,1.409-2.151,4.008-0.825,5.918l1.619,2.33c1.352,1.944,4.026,2.489,5.966,1.214c1.45-0.954,2.148-2.616,1.904-4.237
		l4.66-1.911c2.393,2.514,5.145,4.613,8.191,6.254l-0.637,5.756c-0.766-0.021-1.535,0.137-2.234,0.472
		c-1.151,0.549-2.011,1.503-2.417,2.687c-0.829,2.415,0.447,5.091,2.848,5.966l5.18,1.889c0.52,0.189,1.041,0.283,1.543,0.283
		c0.759,0,1.472-0.213,2.07-0.631c0.938-0.656,1.498-1.756,1.56-3.042c0.347-1.12,0.267-2.313-0.233-3.385
		c-0.316-0.687-0.787-1.274-1.368-1.727l3.148-4.935c4.518,0.84,9.229,0.717,13.682-0.355
		C55.825,74.348,54.581,72.843,54.516,72.767z"/>
</g>
</svg>
